# xmcd
#
# Track frame offsets:
#	150
#	13084
#	23335
#	34282
#	44810
#	54745
#	65927
#	74452
#	87767
#	97162
#	109727
#	124277
#	133862
#	141220
#	154945
#	172932
#
# Disc length: 2456
#
# Revision: 1
# Processed by: cddbd v1.5.1PL0 Copyright (c) Steve Scherf et al.
# Submitted via: dBpowerAMP V4.0
# Normalized: r0:TSWAP
#
DISCID=ef099610
DTITLE=Various Artist - Country Collection
DYEAR=1900
DGENRE=Country
TTITLE0=Kenny Rogers - RUBY, DON'T TAKE YOUR LOVE TO TOWN
TTITLE1=Dave Dudley - SIX DAYS ON THE ROAD
TTITLE2=Lynn Anderson - I'VE BEEN EVERYWHERE
TTITLE3=Don Williams - THERE'S ALWAYS SOMETHING THERE TO REMIND ME
TTITLE4=Leroy Van Dyke - WALK ON BY
TTITLE5=Razzy Baily - 9,999,999 TEARS
TTITLE6=Barbara Mandrell - I GAVE MY LOVE TO A RAILROAD MAN
TTITLE7=David Houston - ALMOST PERSUADE
TTITLE8=Ann Murray - IT'S ALL OVER
TTITLE9=Stonewall Jackson - I WASHED MY HANDS IN MUDDY WATER
TTITLE10=B.J. Thomas - I'M SO LONESOME I COULD CRY
TTITLE11=Dolly Parton - RELEASE ME
TTITLE12=Buck Owens - DOWN ON THE CORNER OF LOVE
TTITLE13=Barbara Fairchild - TEDDY BEAR SONG
TTITLE14=Jeannie Pruett - SATIN SHEETS
TTITLE15=George Jones - YOUR TENDER YEARS
EXTD=
EXTT0=
EXTT1=
EXTT2=
EXTT3=
EXTT4=
EXTT5=
EXTT6=
EXTT7=
EXTT8=
EXTT9=
EXTT10=
EXTT11=
EXTT12=
EXTT13=
EXTT14=
EXTT15=
PLAYORDER=
